<?xml version="1.0" encoding="utf-8"?>
<!-- Generator: Adobe Illustrator 25.2.0, SVG Export Plug-In . SVG Version: 6.00 Build 0)  -->
<svg version="1.1" id="Capa_1" xmlns="http://www.w3.org/2000/svg" xmlns:xlink="http://www.w3.org/1999/xlink" x="0px" y="0px"
	 viewBox="0 0 512 512" style="enable-background:new 0 0 512 512;" xml:space="preserve">
<style type="text/css">
	.st0{fill:#353777;}
</style>
<g>
	<circle class="st0" cx="256" cy="119.63" r="87"/>
	<circle class="st0" cx="432" cy="151.63" r="55"/>
	<circle class="st0" cx="80" cy="151.63" r="55"/>
	<path class="st0" d="M134.19,256.02c-21.65-17.74-41.26-15.39-66.29-15.39c-37.44,0-67.9,30.28-67.9,67.49v109.21
		c0,16.16,13.19,29.3,29.41,29.3c70.03,0,61.59,1.27,61.59-3.02C91,366.22,81.83,309.47,134.19,256.02z"/>
	<path class="st0" d="M279.81,241.03c-43.72-3.65-81.73,0.04-114.51,27.1c-54.86,43.94-44.3,103.1-44.3,175.48
		c0,19.15,15.58,35.02,35.02,35.02c211.08,0,219.48,6.81,232-20.91c4.11-9.37,2.98-6.39,2.98-96.07
		C391,290.42,329.33,241.03,279.81,241.03L279.81,241.03z"/>
	<path class="st0" d="M444.1,240.63c-25.17,0-44.67-2.32-66.29,15.39C429.77,309.08,421,361.96,421,443.61c0,4.31-7,3.02,60.54,3.02
		c16.8,0,30.46-13.61,30.46-30.34V308.12C512,270.91,481.54,240.63,444.1,240.63z"/>
</g>
</svg>
