<?xml version="1.0" encoding="utf-8"?>
<!-- Generator: Adobe Illustrator 25.2.0, SVG Export Plug-In . SVG Version: 6.00 Build 0)  -->
<svg version="1.1" id="Capa_1" xmlns="http://www.w3.org/2000/svg" xmlns:xlink="http://www.w3.org/1999/xlink" x="0px" y="0px"
	 viewBox="0 0 469.33 469.33" style="enable-background:new 0 0 469.33 469.33;" xml:space="preserve">
<style type="text/css">
	.st0{fill:#353777;}
</style>
<g>
	<g>
		<g>
			<path class="st0" d="M394.67,384H74.75c-5.89,0-10.66,4.77-10.67,10.66l-0.04,31.1c-0.01,11.64,4.51,22.57,12.73,30.8
				c8.23,8.24,19.16,12.77,30.79,12.77h254.25c24,0,43.52-19.52,43.52-43.52v-31.15C405.33,388.77,400.56,384,394.67,384z"/>
			<path class="st0" d="M352,42.67c-6.53,0-13.24,0.66-20.34,1.98C307.25,16.19,272.27,0,234.67,0c-70.58,0-128,57.42-128,128
				c0,5.88-4.78,10.67-10.67,10.67c-5.89,0-10.67-4.78-10.67-10.67c0-23.09,5.31-45.44,15.79-66.41c1.86-3.73,1.39-8.2-1.22-11.45
				c-2.6-3.23-6.86-4.67-10.91-3.68C36.59,59.54,0,106.23,0,160c0,44.33,25,84.64,64.25,104.56l-0.11,87.43
				c0,2.82,1.11,5.54,3.11,7.55c2.01,2,4.72,3.12,7.55,3.12h319.86c5.9,0,10.67-4.77,10.67-10.67v-87.59
				c39.1-19.98,64-60.22,64-104.41C469.33,95.3,416.7,42.67,352,42.67z M156.1,296.25c-1.99,1.62-4.38,2.42-6.76,2.42
				c-3.08,0-6.15-1.33-8.26-3.9c-3.52-4.3-34.42-42.76-34.42-70.77c0-5.9,4.77-10.67,10.67-10.67S128,218.1,128,224
				c0,15.44,18.15,43.29,29.58,57.23C161.31,285.79,160.66,292.51,156.1,296.25z M245.33,288c0,5.9-4.77,10.67-10.67,10.67
				S224,293.9,224,288v-64c0-5.9,4.77-10.67,10.67-10.67s10.67,4.77,10.67,10.67L245.33,288L245.33,288z M328.25,294.77
				c-2.11,2.56-5.17,3.9-8.25,3.9c-2.39,0-4.78-0.79-6.76-2.42c-4.55-3.74-5.22-10.46-1.49-15.01
				c11.44-13.97,29.58-41.85,29.58-57.24c0-5.9,4.77-10.67,10.67-10.67s10.67,4.77,10.67,10.67
				C362.67,252.01,331.77,290.47,328.25,294.77z"/>
		</g>
	</g>
</g>
</svg>
