<?xml version="1.0" encoding="utf-8"?>
<!-- Generator: Adobe Illustrator 25.2.0, SVG Export Plug-In . SVG Version: 6.00 Build 0)  -->
<svg version="1.1" id="bold" xmlns="http://www.w3.org/2000/svg" xmlns:xlink="http://www.w3.org/1999/xlink" x="0px" y="0px"
	 viewBox="0 0 512 512" style="enable-background:new 0 0 512 512;" xml:space="preserve">
<style type="text/css">
	.st0{fill:#353777;}
</style>
<g>
	<path class="st0" d="M320,277.33c-11.8,0-21.33,9.56-21.33,21.33V384c0,11.75-9.56,21.33-21.33,21.33h-64v-320
		c0-18.22-11.61-34.5-29.06-40.55l-6.31-2.11h99.37c11.78,0,21.33,9.58,21.33,21.33v64c0,11.78,9.54,21.33,21.33,21.33
		s21.33-9.56,21.33-21.33V64c0-35.29-28.71-64-64-64H48c-0.81,0-1.49,0.36-2.28,0.47C44.69,0.38,43.71,0,42.67,0
		C19.14,0,0,19.14,0,42.67v384c0,18.22,11.61,34.5,29.06,40.55l128.38,42.79c4.35,1.34,8.68,1.98,13.23,1.98
		c23.53,0,42.67-19.14,42.67-42.67V448h64c35.29,0,64-28.71,64-64v-85.33C341.33,286.89,331.8,277.33,320,277.33L320,277.33z"/>
	<path class="st0" d="M505.75,198.25l-85.33-85.33c-6.1-6.1-15.27-7.94-23.25-4.63C389.21,111.59,384,119.38,384,128v64h-85.33
		c-11.78,0-21.33,9.56-21.33,21.33s9.56,21.33,21.33,21.33H384v64c0,8.62,5.21,16.41,13.16,19.71c7.98,3.31,17.15,1.47,23.25-4.63
		l85.33-85.33C514.09,220.07,514.09,206.59,505.75,198.25L505.75,198.25z"/>
</g>
</svg>
