<?xml version="1.0" encoding="utf-8"?>
<!-- Generator: Adobe Illustrator 25.2.0, SVG Export Plug-In . SVG Version: 6.00 Build 0)  -->
<svg version="1.1" id="Capa_1" xmlns="http://www.w3.org/2000/svg" xmlns:xlink="http://www.w3.org/1999/xlink" x="0px" y="0px"
	 viewBox="0 0 426.67 426.67" style="enable-background:new 0 0 426.67 426.67;" xml:space="preserve">
<style type="text/css">
	.st0{fill:#353777;}
</style>
<g>
	<g>
		<g>
			<path class="st0" d="M128,341.33c-23.57,0-42.45,19.09-42.45,42.67s18.88,42.67,42.45,42.67s42.67-19.09,42.67-42.67
				S151.57,341.33,128,341.33z"/>
			<path class="st0" d="M151.47,234.67H310.4c16,0,29.97-8.85,37.33-21.97L424,74.24c1.71-2.99,2.67-6.51,2.67-10.24
				c0-11.84-9.6-21.33-21.33-21.33H89.92L69.65,0H0v42.67h42.67l76.69,161.81l-28.8,52.27c-3.31,6.19-5.23,13.12-5.23,20.59
				c0,23.57,19.09,42.67,42.67,42.67h256v-42.67H137.07c-2.99,0-5.33-2.35-5.33-5.33c0-0.96,0.21-1.81,0.64-2.56L151.47,234.67z"/>
			<path class="st0" d="M341.33,341.33c-23.57,0-42.45,19.09-42.45,42.67s18.88,42.67,42.45,42.67c23.57,0,42.67-19.09,42.67-42.67
				S364.91,341.33,341.33,341.33z"/>
		</g>
	</g>
</g>
</svg>
