<?xml version="1.0" encoding="utf-8"?>
<!-- Generator: Adobe Illustrator 25.2.0, SVG Export Plug-In . SVG Version: 6.00 Build 0)  -->
<svg version="1.1" id="Layer_1" xmlns="http://www.w3.org/2000/svg" xmlns:xlink="http://www.w3.org/1999/xlink" x="0px" y="0px"
	 viewBox="0 0 512 512" style="enable-background:new 0 0 512 512;" xml:space="preserve">
<style type="text/css">
	.st0{fill:#353778;}
</style>
<g>
	<path class="st0" d="M338,200H174c-7.72,0-14,6.28-14,14v36c0,7.72,6.28,14,14,14h164c7.72,0,14-6.28,14-14v-36
		C352,206.28,345.72,200,338,200z"/>
	<path class="st0" d="M256.93,87.99c26.28-0.5,47.07-22.51,47.07-48.8V5c0-2.76-2.24-5-5-5h-86c-2.76,0-5,2.24-5,5v35
		C208,66.78,230.04,88.5,256.93,87.99z"/>
	<path class="st0" d="M382,0h-41c-2.76,0-5,2.24-5,5v33.98c0,44.04-35.17,80.59-79.21,81.02C212.32,120.43,176,84.38,176,40V5
		c0-2.76-2.24-5-5-5h-41C93.55,0,64,29.55,64,66v380c0,36.45,29.55,66,66,66h252c36.45,0,66-29.55,66-66V66
		C448,29.55,418.45,0,382,0z M176.02,432c-8.84,0-16.01-7.16-16.01-16s7.16-16,15.99-16h0.01c8.84,0,16,7.16,16,16
		S184.86,432,176.02,432L176.02,432z M176.02,368c-8.84,0-16.01-7.16-16.01-16s7.16-16,15.99-16h0.01c8.84,0,16,7.16,16,16
		S184.86,368,176.02,368L176.02,368z M256.02,432c-8.84,0-16.01-7.16-16.01-16s7.16-16,15.99-16h0.01c8.84,0,16,7.16,16,16
		S264.86,432,256.02,432z M256.02,368c-8.84,0-16.01-7.16-16.01-16s7.16-16,15.99-16h0.01c8.84,0,16,7.16,16,16
		S264.86,368,256.02,368z M336.02,432c-8.84,0-16.01-7.16-16.01-16s7.16-16,15.99-16h0.01c8.84,0,16,7.16,16,16
		S344.86,432,336.02,432z M336.02,368c-8.84,0-16.01-7.16-16.01-16s7.16-16,15.99-16h0.01c8.84,0,16,7.16,16,16
		S344.86,368,336.02,368z M384,250c0,25.36-20.64,46-46,46H174c-25.36,0-46-20.64-46-46v-36c0-25.36,20.64-46,46-46h164
		c25.36,0,46,20.64,46,46V250z"/>
</g>
</svg>
