<?xml version="1.0" encoding="utf-8"?>
<!-- Generator: Adobe Illustrator 25.2.0, SVG Export Plug-In . SVG Version: 6.00 Build 0)  -->
<svg version="1.1" id="Layer_1" xmlns="http://www.w3.org/2000/svg" xmlns:xlink="http://www.w3.org/1999/xlink" x="0px" y="0px"
	 viewBox="0 0 512 512" style="enable-background:new 0 0 512 512;" xml:space="preserve">
<style type="text/css">
	.st0{fill:#353777;}
</style>
<path class="st0" d="M256,0C114.84,0,0,114.84,0,256s114.84,256,256,256s256-114.84,256-256S397.16,0,256,0z M377.75,388.41
	c-4.16,4.16-9.62,6.25-15.08,6.25s-10.93-2.09-15.08-6.25L240.92,281.75c-4.01-3.99-6.25-9.41-6.25-15.08V128
	c0-11.8,9.55-21.33,21.33-21.33s21.33,9.54,21.33,21.33v129.84l100.42,100.41C386.09,366.59,386.09,380.07,377.75,388.41z"/>
</svg>
